<svg id="Calque_1" data-name="Calque 1" xmlns="http://www.w3.org/2000/svg" viewBox="0 0 2000 2000"><defs><style>.cls-1{fill:#fff;}.cls-2{fill:#102b3f;}.cls-3{fill:#416bb2;}</style></defs><path class="cls-1" d="M0,0V2000H2000V0ZM1375,1105.75c-5.46,3.54-10.25,8.13-15.15,12.46-4,3.51-7.67,7.32-11.58,10.89A36.79,36.79,0,0,1,1344,1132l-1.1-1c1.11-1.86,1.93-4,3.37-5.52,6-6.39,12.29-12.52,18.26-19a23.27,23.27,0,0,0,3.89-6.54c1.29-2.94,2.88-5.81,6.39-4.83,2,.54,4.36,2.79,4.8,4.68C1380.35,1103,1377.52,1104.1,1375,1105.75Zm226.62-201.58q-29.67,33.75-59.2,67.61c-3.69,4.2-7.62,8.19-12,12.81-3.53-4.64-6.41-8.66-9.55-12.47-8.28-10.07-17.34-19.29-28.79-25.87-2.78-1.6-4.88-2-6.76,1.82,1.38,1,2.72,2.17,4.2,3.09,12.88,8.09,23.74,18.27,31.66,31.3,4.79,7.89,1.67,13.74-7.45,15.27a11.22,11.22,0,0,0-5.47,3c-12.72,12.22-25.16,24.75-38,36.85-16.47,15.52-33.27,30.69-49.83,46.12-2.7,2.51-4.54,1.89-6.64-.51-5.14-5.88-10.13-11.92-15.6-17.49a35.89,35.89,0,0,0-9.38-6.42c-3.12-1.59-6.21.72-5.13,3.92,1.15,3.44-.76,4.6-2.75,6-4.4,3-8.94,5.77-13.36,8.74-6.37,4.29-11.11,9.71-13.5,17.32-.92,2.94-3.69,5.46-6,7.78q-106.26,106.21-212.59,212.36c-4.84,4.83-9.78,9.55-14.43,14.56-2.37,2.55-4.92,3.37-8.34,3.37q-73.24-.15-146.49-.07c-128.16,0-256.33-.52-384.48.41-39,.28-68.57-15.53-93.41-43.56-11.34-12.8-21.28-26.52-27.65-42.52-13.19-33.13-10.58-65.5,5-97.15q4.95-10,10.16-19.89a17.27,17.27,0,0,1,3.19-3.78q17.31-17.34,34.65-34.64c.78-.78,1.42-1.7,2.59-3.12-15.14-1-27.52-7-38.1-15.94-6.81,3.94-12.92,8.42-19.72,11.27-29.23,12.26-73.87.52-87.16-42.93a95.28,95.28,0,0,1-4.12-26.5c-.45-38.83-.22-77.66-.23-116.49,0-1,.09-1.94.15-3.23h56.15V901q0,55,.06,110a52.74,52.74,0,0,0,1.27,12.36c1.5,6.15,5.22,8.76,11.07,8.78,7.4,0,10.92-2.13,12.54-8.81a55.91,55.91,0,0,0,1.22-12.87q.14-54.5.05-109v-6.29h55.75c.09,1.85.26,3.77.26,5.68,0,36.66,0,73.33.07,110a53.51,53.51,0,0,0,1.46,13.32c1.56,5.93,5.15,8,11.65,7.95,6.18,0,9.7-2.09,11.23-7.84a53.47,53.47,0,0,0,1.52-13.31c.11-36.5.06-73,.06-109.49v-6.3H588V1016h.91V946.85h49.76c.12,2.41.24,4.71.38,7.59,9.77-5.47,21.72-5.93,28.61-16.12,2.2-3.25,5.4-5.91,8.43-8.49,2.69-2.3,3.34-4.78,3.11-8.27-1.32-19.72,13.85-33.95,33.63-32.12A8.51,8.51,0,0,0,718.7,887q52.63-52.38,105-105c20-20,39.66-40.49,60.21-60,17.23-16.34,36-30.93,60-36.13a113.42,113.42,0,0,1,23.7-2.73q249-.26,498-.14h76.12c-1.69,1.87-2.77,3.16-3.94,4.36-11.09,11.29-22.3,22.48-33.21,33.95a11.78,11.78,0,0,0-3,7.35q-.21,89,0,178a11.44,11.44,0,0,0,2,6.19c-4.45,4.22-9,8.37-13.32,12.7-2,1.94-5,4.71-2.08,7,2.07,1.68,6.61,2.35,9,1.22,4.74-2.28,8-6.37,10.07-11.77,2.59-6.68,7.21-12.11,15.29-13.12a10.94,10.94,0,0,0,5.27-2.48q20.26-16.95,40.32-34.13c.84-.72,1.86-2.52,1.54-3-.7-1.09-2.49-2.57-3.31-2.3a23.15,23.15,0,0,0-7.76,3.9c-5.69,4.78-11,10-17.21,14.51a6.06,6.06,0,0,1,.84-2c6.18-6.31,12.28-12.71,18.66-18.81,4.45-4.26,8.57-2.68,12.34,2.09,3.61,4.57,9.1,7.6,13.22,11.84,5.54,5.68,10.65,11.8,15.76,17.89C1604.3,899.06,1603.83,901.62,1601.59,904.17Zm15.6-22.93c-.62,2.78-3.11,5.15-4.79,7.7-1.82-1.53-3.72-3-5.44-4.61q-10.92-10.46-21.75-21a15.69,15.69,0,0,1-1.17-1.47c6.23-7.77,10.11-7.86,16.42-4.25,6.49,3.71,12.24,8.13,15.32,15.09C1616.94,875.28,1617.78,878.6,1617.19,881.24Z"/><path class="cls-2" d="M1602.21,896.56c-5.11-6.09-10.22-12.21-15.76-17.89-4.12-4.24-9.61-7.27-13.22-11.84-3.77-4.77-7.89-6.35-12.34-2.09-6.38,6.1-12.48,12.5-18.66,18.81a6.06,6.06,0,0,0-.84,2c6.17-4.55,11.52-9.73,17.21-14.51a23.15,23.15,0,0,1,7.76-3.9c.82-.27,2.61,1.21,3.31,2.3.32.48-.7,2.28-1.54,3q-20.07,17.16-40.32,34.13a10.94,10.94,0,0,1-5.27,2.48c-8.08,1-12.7,6.44-15.29,13.12-2.09,5.4-5.33,9.49-10.07,11.77-2.36,1.13-6.9.46-9-1.22-2.89-2.34.13-5.11,2.08-7,4.35-4.33,8.87-8.48,13.32-12.7a11.44,11.44,0,0,1-2-6.19q-.1-89,0-178a11.78,11.78,0,0,1,3-7.35c10.91-11.47,22.12-22.66,33.21-33.95,1.17-1.2,2.25-2.49,3.94-4.36h-76.12q-249,0-498,.14A113.42,113.42,0,0,0,944,686c-24,5.2-42.76,19.79-60,36.13-20.55,19.48-40.19,39.93-60.21,60q-52.5,52.51-105,105a8.51,8.51,0,0,1-5.86,2.43c-19.78-1.83-35,12.4-33.63,32.12.23,3.49-.42,6-3.11,8.27-3,2.58-6.23,5.24-8.43,8.49-6.89,10.19-18.84,10.65-28.61,16.12-.14-2.88-.26-5.18-.38-7.59H588.92V1016H588V895.16H531.5v6.3c0,36.5,0,73-.06,109.49a53.47,53.47,0,0,1-1.52,13.31c-1.53,5.75-5,7.81-11.23,7.84-6.5,0-10.09-2-11.65-7.95a53.51,53.51,0,0,1-1.46-13.32c-.11-36.66-.06-73.33-.07-110,0-1.91-.17-3.83-.26-5.68H449.5v6.29q0,54.49-.05,109a55.91,55.91,0,0,1-1.22,12.87c-1.62,6.68-5.14,8.84-12.54,8.81-5.85,0-9.57-2.63-11.07-8.78a52.74,52.74,0,0,1-1.27-12.36q-.14-55-.06-110v-5.86H367.14c-.06,1.29-.15,2.26-.15,3.23,0,38.83-.22,77.66.23,116.49a95.28,95.28,0,0,0,4.12,26.5c13.29,43.45,57.93,55.19,87.16,42.93,6.8-2.85,12.91-7.33,19.72-11.27,10.58,9,23,15,38.1,15.94-1.17,1.42-1.81,2.34-2.59,3.12q-17.31,17.32-34.65,34.64a17.27,17.27,0,0,0-3.19,3.78q-5.22,9.87-10.16,19.89c-15.62,31.65-18.23,64-5,97.15,6.37,16,16.31,29.72,27.65,42.52,24.84,28,54.45,43.84,93.41,43.56,128.15-.93,256.32-.39,384.48-.41q73.24,0,146.49.07c3.42,0,6-.82,8.34-3.37,4.65-5,9.59-9.73,14.43-14.56q106.3-106.17,212.59-212.36c2.32-2.32,5.09-4.84,6-7.78,2.39-7.61,7.13-13,13.5-17.32,4.42-3,9-5.74,13.36-8.74,2-1.36,3.9-2.52,2.75-6-1.08-3.2,2-5.51,5.13-3.92a35.89,35.89,0,0,1,9.38,6.42c5.47,5.57,10.46,11.61,15.6,17.49,2.1,2.4,3.94,3,6.64.51,16.56-15.43,33.36-30.6,49.83-46.12,12.84-12.1,25.28-24.63,38-36.85a11.22,11.22,0,0,1,5.47-3c9.12-1.53,12.24-7.38,7.45-15.27-7.92-13-18.78-23.21-31.66-31.3-1.48-.92-2.82-2.06-4.2-3.09,1.88-3.77,4-3.42,6.76-1.82,11.45,6.58,20.51,15.8,28.79,25.87,3.14,3.81,6,7.83,9.55,12.47,4.33-4.62,8.26-8.61,12-12.81q29.63-33.78,59.2-67.61C1603.83,901.62,1604.3,899.06,1602.21,896.56Zm-364.93,56.37c29.1-7.36,60.84,8.86,72.93,37.73l-60,40.76c-5-7.49-9.79-14.76-14.91-22.46l32.41-22.7c-6.16-5-12.73-5.61-19.42-4-14,3.25-23.16,16.19-22.67,31.19.58,18.06,13.83,31.09,30.89,29.88,10.45-.74,18.92-5.88,25.61-13.81,2.87-3.41,5.26-7.23,8.17-11.28l29.71,14.26c-4.41,7.16-8,14.47-13,20.75-15.85,20.2-37,30.31-62.48,27.06-27.42-3.49-45.65-19.88-53.5-46.46A64.25,64.25,0,0,1,1237.28,952.93Zm42,68.83c-5.48,7.45-12.25,12.92-22.23,13.49l21.4-14.52Zm-42.7-24.61,12.92-9,1.11,1.59q-6.46,4.51-12.92,9ZM1067.42,772.29c25.89-24.88,56.95-39.33,92.23-45.07,8.81-1.43,17.57-1.43,26.19,1.16,12.89,3.88,17.71,13.48,11.66,25.51-3.37,6.71-8.66,12.5-13.37,18.48-2,2.58-5.12,4.34-7.17,6.91-5.64,7.08-12.84,8.88-22.63,6.7,5.79-5.57,11.25-10.42,16.19-15.76a33.93,33.93,0,0,0,6.1-9.62c3.76-8.84.31-16-8.92-18.62-9.55-2.7-19.18-1.66-28.63.7-24.09,6-45.77,16.69-62,35.94-5.92,7-12.12,9.66-21.68,7.39C1059.49,781.28,1063.11,776.42,1067.42,772.29ZM997.2,848.5a82.53,82.53,0,0,1,10.56-15.63c9.57-11.75,19.34-23.35,29.44-34.65,2.17-2.42,6.07-4.64,9.2-4.67,39-.31,78-.2,116.95-.18,1.26,0,2.52.25,4.29.43a11.46,11.46,0,0,1-1.45,2.44c-17.52,15.62-34.39,32.09-52.8,46.59-21.72,17.12-47.47,25.68-74.71,29.88-9,1.38-17.9,1.45-26.67-1.07a38.79,38.79,0,0,1-9.6-4C995.51,863.35,993.34,856.4,997.2,848.5Zm-20.48,204.42q3.3-24.87,6.66-49.73c2.2-16.24,4.36-32.49,6.64-48.72,1.36-9.67,2.32-19.45,4.54-28.93,2.69-11.51,8.87-21.37,20.75-24.91,15.68-4.67,29.79-.37,37.92,16.27,4.45,9.08,6.68,19.35,9.14,29.28,3.94,15.89,7.35,31.92,10.74,48,1.06,5,1.35,10.13,3.09,15.41.64-3.81,1.15-7.65,2-11.42,3.89-18.11,7.69-36.25,11.89-54.29,1.94-8.36,3.84-16.91,7.3-24.7,8-18.07,22.67-23.38,39.09-18.52,12.57,3.72,18.64,14.22,21,26.31,2.67,13.45,4.21,27.14,6.12,40.75,2.29,16.4,4.46,32.82,6.66,49.23q3.21,23.89,6.35,47.78c.58,4.41,1.11,8.82,1.7,13.51a30.93,30.93,0,0,1-3.58.42c-11.33,0-22.66,0-34,0-2.61,0-4.18-.21-4.47-3.61-2.14-25-4.65-49.89-6.82-74.84-1.56-17.86-2.75-35.75-4.16-53.62a12.23,12.23,0,0,0-2.13-6.26c-1.51,7.43-3,14.87-4.55,22.28-6.93,32-13.83,64-20.95,96a40.52,40.52,0,0,1-4.77,11.94c-8.28,13.71-27.6,13.51-34.29-1-4.5-9.78-6.77-20.71-9.13-31.32-7.13-32.11-13.82-64.32-21.55-96.72a18,18,0,0,0-1.06,3.65c-1.13,14.4-2,28.81-3.29,43.2-1.43,16.69-3.16,33.36-4.7,50-1.13,12.23-2.24,24.46-3.18,36.71-.19,2.47-.85,3.58-3.49,3.56-12.17-.09-24.33-.05-36.49-.08a10.64,10.64,0,0,1-2.21-.54C974.59,1069.58,975.62,1061.25,976.72,1052.92ZM892.07,951.47c26.8-3.58,54.74,13.11,65.58,39.2l-59.88,40.75L882.86,1009l32.55-23c-8.76-5.6-16.85-5.69-25-2.13-12,5.2-18.2,18.07-16.75,33.75,1.12,12,10.18,22.66,22.27,25.13,11.21,2.3,21.14-1.36,29.28-9.06,4.65-4.41,8.44-9.73,13.2-15.34l28.52,13.85c-11.4,25.26-28.48,42.62-56.36,47.51-35.82,6.29-65.8-18.2-72.66-48.25C828.8,991.67,854.75,956.47,892.07,951.47ZM756.92,922.34c9.65.3,19.32.2,29,0,3.45-.06,4.76,1.14,4.69,4.63-.16,8.48-.05,17-.05,26.37,9.15,0,17.61.21,26.05-.08,4.06-.14,5.18,1.27,5.07,5.17q-.37,13.23,0,26.48c.1,3.85-1.32,4.84-4.94,4.75-8.46-.22-16.93-.07-26.18-.07v9.75c0,10.16,0,20.32.05,30.48.07,9.09,3,12.12,12.3,12.45,4.83.17,9.67.14,14.49,0,2.85-.08,4.3.65,4.25,3.88-.15,9.49.07,19-.19,28.49,0,1.33-1.89,3.74-3,3.76-12.77.28-25.56.81-38-3.37-17.06-5.73-26.08-18-28-35.26-1.25-11.53-1.06-23.23-1.12-34.86-.15-25.66.05-51.32-.14-77C751.24,923.57,752.51,922.2,756.92,922.34Zm-48.69-26c12.9,0,23.15,9.73,23.38,22.28a22.83,22.83,0,0,1-22.68,23c-13,0-22.74-9.59-22.8-22.55C686.07,906.41,695.81,896.41,708.23,896.37Zm-19.16,62.42c-.33-4.58,1.45-5.64,5.73-5.5q14,.45,28,0c4.49-.16,6,1,6,5.77-.28,19.15-.11,38.31-.11,57.46,0,18.66-.23,37.32.14,56,.1,5.31-1.59,6.45-6.49,6.23-8.81-.38-17.65-.1-26.48-.1-6.62,0-6.63,0-6.63-6.91q0-48.72,0-97.44C689.15,969.11,689.44,963.92,689.07,958.79Zm-92.78-1.63c0-2.76.87-3.86,3.74-3.82q14,.18,28,0c2.91,0,3.76,1.16,3.68,3.87-.14,4.42,0,8.84,0,13.26L633,971c9.35-13.88,23.21-17.53,38.7-17.65,3.06,0,4.08,1,4,4q-.21,14.73,0,29.49c0,3-1.18,4.11-4,4.35a110.78,110.78,0,0,0-12.34,1.47c-14.79,2.92-24,13.25-24.68,28.42-.71,16.95-.77,33.93-1.05,50.9-.1,6.62,0,6.63-6.87,6.63-8.83,0-17.66-.1-26.49,0-3.07,0-4-1-4-4Q596.39,1015.89,596.29,957.16ZM481.76,1066.65c-3-2.77-5-3.4-8.22-.25-28.72,28.22-83.13,17.32-95.92-28.62-2.45-8.81-3.24-18.32-3.34-27.52-.38-34.32-.07-68.66-.26-103,0-4.67,1.43-6,6-5.9,10.32.3,20.66.27,31,0,4.33-.1,5.73,1.2,5.71,5.66-.17,36.83-.12,73.66-.08,110.49,0,13.18,8.11,21.93,20,21.84s19.67-8.87,19.69-22.25q.09-54.48,0-109c0-6.66,0-6.67,6.49-6.67,10.17,0,20.34.16,30.49-.08,4.22-.1,5.36,1.38,5.34,5.48q-.21,54.24,0,108.49a40.76,40.76,0,0,0,1.09,9.34c2.2,9.23,9.34,14.67,18.8,14.67s16.54-5.53,18.7-14.78a42,42,0,0,0,1.08-9.35c.07-36,.13-72-.07-108,0-4.78,1.53-6,6-5.87,10.33.26,20.67.33,31,0,4.86-.17,5.85,1.73,5.8,6.11-.18,19-.08,38-.08,57h-.35c0,19,.8,38-.2,57-1.41,26.79-17,52.19-46.51,58.65C514.3,1084.39,496.65,1080.58,481.76,1066.65ZM1466,943.58a10.7,10.7,0,0,1-2.91,6.79q-163.72,163.27-327.64,326.36c-8.62,8.58-17.09,17.33-26,25.65a13.3,13.3,0,0,1-8.22,3.36c-43.66.21-87.33.14-131,.15-129,0-258-.3-387,.31-30.16.14-54.16-11.31-74.69-31.93-14.07-14.13-24.73-30.5-28.93-50.31-5.64-26.55.44-50.77,15.69-72.84a129.66,129.66,0,0,1,27.14-28.4A76.27,76.27,0,0,1,571,1106.19q269.73.13,539.45.1c4.88,0,8.49-1.17,11.72-4.87,3.72-4.26,8.12-7.91,11.9-12.13,2.46-2.76,5.2-3.58,8.77-3.55,14.14.15,28.28.06,43.36.06-1.28-9.69-2.46-18.7-3.67-27.71-.46-3.45-1-6.89-1.51-10.33s.23-6.27,4.1-8c2.33,4.54,4.3,9.4,7.1,13.71,14.76,22.69,35.33,34.79,62.89,33.69,31.17-1.24,52.15-17.84,66.52-44.29,2.35-4.33,4.32-8.88,6.7-13.82l-36.29-17.69,27.15-18.67c-9.26-19.58-22-35.31-43.27-43.94l189.73-188.25c.21,2.8.41,4.2.41,5.61Q1466.11,854.84,1466,943.58Z"/><path class="cls-2" d="M1617.19,881.24c-.62,2.78-3.11,5.15-4.79,7.7-1.82-1.53-3.72-3-5.44-4.61q-10.92-10.46-21.75-21a15.69,15.69,0,0,1-1.17-1.47c6.23-7.77,10.11-7.86,16.42-4.25,6.49,3.71,12.24,8.13,15.32,15.09C1616.94,875.28,1617.78,878.6,1617.19,881.24Z"/><path d="M1342.93,1131c1.11-1.86,1.93-4,3.37-5.52,6-6.39,12.29-12.52,18.26-19a23.27,23.27,0,0,0,3.89-6.54c1.29-2.94,2.88-5.81,6.39-4.83,2,.54,4.36,2.79,4.8,4.68.71,3.07-2.12,4.22-4.67,5.87-5.46,3.54-10.25,8.13-15.15,12.46-4,3.51-7.67,7.32-11.58,10.89A36.79,36.79,0,0,1,1344,1132Z"/><path class="cls-1" d="M1466,943.58a10.7,10.7,0,0,1-2.91,6.79q-163.72,163.27-327.64,326.36c-8.62,8.58-17.09,17.33-26,25.65a13.3,13.3,0,0,1-8.22,3.36c-43.66.21-87.33.14-131,.15-129,0-258-.3-387,.31-30.16.14-54.16-11.31-74.69-31.93-14.07-14.13-24.73-30.5-28.93-50.31-5.64-26.55.44-50.77,15.69-72.84a129.66,129.66,0,0,1,27.14-28.4A76.27,76.27,0,0,1,571,1106.19q269.73.13,539.45.1c4.88,0,8.49-1.17,11.72-4.87,3.72-4.26,8.12-7.91,11.9-12.13,2.46-2.76,5.2-3.58,8.77-3.55,14.14.15,28.28.06,43.36.06-1.28-9.69-2.46-18.7-3.67-27.71-.46-3.45-1-6.89-1.51-10.33s.23-6.27,4.1-8c2.33,4.54,4.3,9.4,7.1,13.71,14.76,22.69,35.33,34.79,62.89,33.69,31.17-1.24,52.15-17.84,66.52-44.29,2.35-4.33,4.32-8.88,6.7-13.82l-36.29-17.69,27.15-18.67c-9.26-19.58-22-35.31-43.27-43.94l189.73-188.25c.21,2.8.41,4.2.41,5.61Q1466.11,854.84,1466,943.58Z"/><path class="cls-3" d="M581,964.47h-.35c0,19,.8,38-.2,57-1.41,26.79-17,52.19-46.51,58.65-19.61,4.29-37.26.48-52.15-13.45-3-2.77-5-3.4-8.22-.25-28.72,28.22-83.13,17.32-95.92-28.62-2.45-8.81-3.24-18.32-3.34-27.52-.38-34.32-.07-68.66-.26-103,0-4.67,1.43-6,6-5.9,10.32.3,20.66.27,31,0,4.33-.1,5.73,1.2,5.71,5.66-.17,36.83-.12,73.66-.08,110.49,0,13.18,8.11,21.93,20,21.84s19.67-8.87,19.69-22.25q.09-54.48,0-109c0-6.66,0-6.67,6.49-6.67,10.17,0,20.34.16,30.49-.08,4.22-.1,5.36,1.38,5.34,5.48q-.21,54.24,0,108.49a40.76,40.76,0,0,0,1.09,9.34c2.2,9.23,9.34,14.67,18.8,14.67s16.54-5.53,18.7-14.78a42,42,0,0,0,1.08-9.35c.07-36,.13-72-.07-108,0-4.78,1.53-6,6-5.87,10.33.26,20.67.33,31,0,4.86-.17,5.85,1.73,5.8,6.11C580.87,926.48,581,945.48,581,964.47Z"/><path class="cls-3" d="M1178.32,1078.19a30.93,30.93,0,0,1-3.58.42c-11.33,0-22.66,0-34,0-2.61,0-4.18-.21-4.47-3.61-2.14-25-4.65-49.89-6.82-74.84-1.56-17.86-2.75-35.75-4.16-53.62a12.23,12.23,0,0,0-2.13-6.26c-1.51,7.43-3,14.87-4.55,22.28-6.93,32-13.83,64-20.95,96a40.52,40.52,0,0,1-4.77,11.94c-8.28,13.71-27.6,13.51-34.29-1-4.5-9.78-6.77-20.71-9.13-31.32-7.13-32.11-13.82-64.32-21.55-96.72a18,18,0,0,0-1.06,3.65c-1.13,14.4-2,28.81-3.29,43.2-1.43,16.69-3.16,33.36-4.7,50-1.13,12.23-2.24,24.46-3.18,36.71-.19,2.47-.85,3.58-3.49,3.56-12.17-.09-24.33-.05-36.49-.08a10.64,10.64,0,0,1-2.21-.54c1.08-8.46,2.11-16.79,3.21-25.12q3.3-24.87,6.66-49.73c2.2-16.24,4.36-32.49,6.64-48.72,1.36-9.67,2.32-19.45,4.54-28.93,2.69-11.51,8.87-21.37,20.75-24.91,15.68-4.67,29.79-.37,37.92,16.27,4.45,9.08,6.68,19.35,9.14,29.28,3.94,15.89,7.35,31.92,10.74,48,1.06,5,1.35,10.13,3.09,15.41.64-3.81,1.15-7.65,2-11.42,3.89-18.11,7.69-36.25,11.89-54.29,1.94-8.36,3.84-16.91,7.3-24.7,8-18.07,22.67-23.38,39.09-18.52,12.57,3.72,18.64,14.22,21,26.31,2.67,13.45,4.21,27.14,6.12,40.75,2.29,16.4,4.46,32.82,6.66,49.23q3.21,23.89,6.35,47.78C1177.2,1069.09,1177.73,1073.5,1178.32,1078.19Z"/><path class="cls-3" d="M966.92,1032.25c-11.4,25.26-28.48,42.62-56.36,47.51-35.82,6.29-65.8-18.2-72.66-48.25-9.1-39.84,16.85-75,54.17-80,26.8-3.58,54.74,13.11,65.58,39.2l-59.88,40.75L882.86,1009l32.55-23c-8.76-5.6-16.85-5.69-25-2.13-12,5.2-18.2,18.07-16.75,33.75,1.12,12,10.18,22.66,22.27,25.13,11.21,2.3,21.14-1.36,29.28-9.06,4.65-4.41,8.44-9.73,13.2-15.34Z"/><path class="cls-3" d="M1320,1032.45c-4.41,7.16-8,14.47-13,20.75-15.85,20.2-37,30.31-62.48,27.06-27.42-3.49-45.65-19.88-53.5-46.46a64.25,64.25,0,0,1,46.17-80.87c29.1-7.36,60.84,8.86,72.93,37.73l-60,40.76c-5-7.49-9.79-14.76-14.91-22.46l32.41-22.7c-6.16-5-12.73-5.61-19.42-4-14,3.25-23.16,16.19-22.67,31.19.58,18.06,13.83,31.09,30.89,29.88,10.45-.74,18.92-5.88,25.61-13.81,2.87-3.41,5.26-7.23,8.17-11.28Z"/><path class="cls-1" d="M1163.35,793.37c-39,0-78-.13-116.95.18-3.13,0-7,2.25-9.2,4.67-10.1,11.3-19.87,22.9-29.44,34.65A82.53,82.53,0,0,0,997.2,848.5c-3.86,7.9-1.69,14.85,5.21,19.15a38.79,38.79,0,0,0,9.6,4c8.77,2.52,17.66,2.45,26.67,1.07,27.24-4.2,53-12.76,74.71-29.88,18.41-14.5,35.28-31,52.8-46.59a11.46,11.46,0,0,0,1.45-2.44C1165.87,793.62,1164.61,793.37,1163.35,793.37Zm-90.3,44.45a7.24,7.24,0,0,1-3.56,2.62c-7.55,2.31-12.1,8.39-17.6,13.36-2.34,2.11-5.53,3.41-8.53,4.62-1.06.42-2.68-.54-4-.87.44-1.29.56-2.82,1.37-3.82,1.76-2.18,3.9-4.06,5.82-6.13s4.68-3.69,3.44-7.53c-.33-1,1.18-3.31,2.42-4,5.39-3,11-5.62,16.66-8.45,2.93,1.82,5.82,2.65,6.61,4.43C1076.22,833.36,1074.28,836,1073.05,837.82Z"/><path class="cls-3" d="M790.54,999.38c0,10.16,0,20.32.05,30.48.07,9.09,3,12.12,12.3,12.45,4.83.17,9.67.14,14.49,0,2.85-.08,4.3.65,4.25,3.88-.15,9.49.07,19-.19,28.49,0,1.33-1.89,3.74-3,3.76-12.77.28-25.56.81-38-3.37-17.06-5.73-26.08-18-28-35.26-1.25-11.53-1.06-23.23-1.12-34.86-.15-25.66.05-51.32-.14-77,0-4.41,1.23-5.78,5.64-5.64,9.65.3,19.32.2,29,0,3.45-.06,4.76,1.14,4.69,4.63-.16,8.48-.05,17-.05,26.37,9.15,0,17.61.21,26.05-.08,4.06-.14,5.18,1.27,5.07,5.17q-.37,13.23,0,26.48c.1,3.85-1.32,4.84-4.94,4.75-8.46-.22-16.93-.07-26.18-.07Z"/><path class="cls-3" d="M675.74,986.86c0,3-1.18,4.11-4,4.35a110.78,110.78,0,0,0-12.34,1.47c-14.79,2.92-24,13.25-24.68,28.42-.71,16.95-.77,33.93-1.05,50.9-.1,6.62,0,6.63-6.87,6.63-8.83,0-17.66-.1-26.49,0-3.07,0-4-1-4-4q.11-58.74,0-117.47c0-2.76.87-3.86,3.74-3.82q14,.18,28,0c2.91,0,3.76,1.16,3.68,3.87-.14,4.42,0,8.84,0,13.26L633,971c9.35-13.88,23.21-17.53,38.7-17.65,3.06,0,4.08,1,4,4Q675.52,972.1,675.74,986.86Z"/><path class="cls-3" d="M728.76,1072.49c.1,5.31-1.59,6.45-6.49,6.23-8.81-.38-17.65-.1-26.48-.1-6.62,0-6.63,0-6.63-6.91q0-48.72,0-97.44c0-5.16.29-10.35-.08-15.48-.33-4.58,1.45-5.64,5.73-5.5q14,.45,28,0c4.49-.16,6,1,6,5.77-.28,19.15-.11,38.31-.11,57.46C728.62,1035.18,728.39,1053.84,728.76,1072.49Z"/><path class="cls-1" d="M1197.5,753.89c-3.37,6.71-8.66,12.5-13.37,18.48-2,2.58-5.12,4.34-7.17,6.91-5.64,7.08-12.84,8.88-22.63,6.7,5.79-5.57,11.25-10.42,16.19-15.76a33.93,33.93,0,0,0,6.1-9.62c3.76-8.84.31-16-8.92-18.62-9.55-2.7-19.18-1.66-28.63.7-24.09,6-45.77,16.69-62,35.94-5.92,7-12.12,9.66-21.68,7.39,4.11-4.73,7.73-9.59,12-13.72,25.89-24.88,56.95-39.33,92.23-45.07,8.81-1.43,17.57-1.43,26.19,1.16C1198.73,732.26,1203.55,741.86,1197.5,753.89Z"/><path class="cls-3" d="M731.61,918.65a22.83,22.83,0,0,1-22.68,23c-13,0-22.74-9.59-22.8-22.55-.06-12.67,9.68-22.67,22.1-22.71C721.13,896.33,731.38,906.1,731.61,918.65Z"/><path class="cls-1" d="M1279.27,1021.76c-5.48,7.45-12.25,12.92-22.23,13.49l21.4-14.52Z"/><path class="cls-1" d="M1250.6,989.69q-6.46,4.51-12.92,9l-1.11-1.58,12.92-9Z"/><path d="M1069,827.63c2.93,1.82,5.82,2.65,6.61,4.43.59,1.3-1.35,4-2.58,5.76a7.24,7.24,0,0,1-3.56,2.62c-7.55,2.31-12.1,8.39-17.6,13.36-2.34,2.11-5.53,3.41-8.53,4.62-1.06.42-2.68-.54-4-.87.44-1.29.56-2.82,1.37-3.82,1.76-2.18,3.9-4.06,5.82-6.13s4.68-3.69,3.44-7.53c-.33-1,1.18-3.31,2.42-4C1057.75,833.08,1063.35,830.46,1069,827.63Z"/></svg>